<svg width="20" height="22" viewBox="0 0 20 22" fill="none" xmlns="http://www.w3.org/2000/svg">
<path fill-rule="evenodd" clip-rule="evenodd" d="M4 9H3C1.34315 9 0 10.3431 0 12V19C0 20.6569 1.34315 22 3 22H17C18.6569 22 20 20.6569 20 19V12C20 10.3431 18.6569 9 17 9H16V6C16 2.68629 13.3137 0 10 0C6.68629 0 4 2.68629 4 6V9ZM6 9H14V6C14 3.79086 12.2091 2 10 2C7.79086 2 6 3.79086 6 6V9ZM15 11H17C17.5523 11 18 11.4477 18 12V19C18 19.5523 17.5523 20 17 20H3C2.44772 20 2 19.5523 2 19V12C2 11.4477 2.44772 11 3 11H5H15Z" fill="#7F7F7F"/>
</svg>
